<?xml version="1.0" standalone="no"?><!DOCTYPE svg PUBLIC "-//W3C//DTD SVG 1.1//EN" "http://www.w3.org/Graphics/SVG/1.1/DTD/svg11.dtd"><svg t="1749970476794" class="icon" viewBox="0 0 1024 1024" version="1.1" xmlns="http://www.w3.org/2000/svg" p-id="7822" xmlns:xlink="http://www.w3.org/1999/xlink" width="200" height="200"><path d="M890.453333 736l-115.626666-199.68A294.4 294.4 0 0 0 810.666667 394.666667a298.666667 298.666667 0 0 0-597.333334 0 294.4 294.4 0 0 0 35.84 141.653333l-115.626666 199.68a42.666667 42.666667 0 0 0 37.12 64h122.453333l62.293333 104.96a42.666667 42.666667 0 0 0 7.68 9.386667 42.666667 42.666667 0 0 0 29.44 11.946666h5.973334a42.666667 42.666667 0 0 0 31.146666-20.906666L512 763.733333l82.346667 142.933334a42.666667 42.666667 0 0 0 31.146666 20.48h5.973334a42.666667 42.666667 0 0 0 29.866666-11.946667 37.12 37.12 0 0 0 7.253334-8.96l62.293333-104.96H853.333333a42.666667 42.666667 0 0 0 37.12-21.333333 42.666667 42.666667 0 0 0 0-43.946667zM392.106667 801.28l-37.973334-63.573333a42.666667 42.666667 0 0 0-36.266666-20.906667H244.053333l61.013334-105.813333a298.666667 298.666667 0 0 0 152.32 78.506666zM512 608a213.333333 213.333333 0 1 1 213.333333-213.333333 213.333333 213.333333 0 0 1-213.333333 213.333333z m194.133333 108.8a42.666667 42.666667 0 0 0-36.266666 20.906667l-37.973334 63.573333-64.853333-113.066667a301.226667 301.226667 0 0 0 151.893333-78.506666l61.013334 105.813333z" p-id="7823"></path></svg>